<svg width="1440" height="86" fill="none" xmlns="http://www.w3.org/2000/svg"><mask id="a" fill="#fff"><path d="M-15 0h1537v82H-15V0Z"/></mask><path d="M-15 0h1537v82H-15V0Z" fill="#58A16C"/><path d="M-15 0v8h1537V-8H-15v8Z" fill="#000" mask="url(#a)"/><path d="M198.66 13.58C159.117 6.693 140.511 62.973 141.5 82H218c-3.163-47.241-3.709-65.696-19.34-68.42Z" fill="#E04F3A" stroke="#000" stroke-width="8"/><path d="M106.747 17.17c-24.792 0-41.055 46.53-40.063 64.711h74.224c-2.38-46.807-23.253-64.711-34.161-64.711Z" fill="#F6E563" stroke="#000" stroke-width="8"/><path d="M66.684 81.967c-5.553-51.567-37.95-63.144-54.146-60.83-19.173.66-56.34 14.023-55.546 60.83H66.684Z" fill="#D56DB0" stroke="#000" stroke-width="8"/><path fill="#000" d="M-44 82h266v4H-44z"/><path d="M464.66 13.58C425.117 6.693 406.511 62.973 407.5 82H484c-3.163-47.241-3.709-65.696-19.34-68.42Z" fill="#E04F3A" stroke="#000" stroke-width="8"/><path d="M372.747 17.17c-24.792 0-41.055 46.53-40.063 64.711h74.224c-2.38-46.807-23.253-64.711-34.161-64.711Z" fill="#F6E563" stroke="#000" stroke-width="8"/><path d="M332.684 81.967c-5.553-51.567-37.949-63.144-54.146-60.83-19.173.66-56.34 14.023-55.546 60.83h109.692Z" fill="#D56DB0" stroke="#000" stroke-width="8"/><path fill="#000" d="M222 82h266v4H222z"/><path d="M730.66 13.58C691.117 6.693 672.511 62.973 673.5 82H750c-3.163-47.241-3.709-65.696-19.34-68.42Z" fill="#E04F3A" stroke="#000" stroke-width="8"/><path d="M638.747 17.17c-24.792 0-41.054 46.53-40.063 64.711h74.224c-2.38-46.807-23.253-64.711-34.161-64.711Z" fill="#F6E563" stroke="#000" stroke-width="8"/><path d="M598.684 81.967c-5.553-51.567-37.949-63.144-54.146-60.83-19.173.66-56.34 14.023-55.546 60.83h109.692Z" fill="#D56DB0" stroke="#000" stroke-width="8"/><path fill="#000" d="M488 82h266v4H488z"/><path d="M996.66 13.58C957.117 6.693 938.511 62.973 939.5 82h76.5c-3.16-47.241-3.71-65.696-19.34-68.42Z" fill="#E04F3A" stroke="#000" stroke-width="8"/><path d="M904.747 17.17c-24.792 0-41.054 46.53-40.063 64.711h74.224c-2.38-46.807-23.253-64.711-34.161-64.711Z" fill="#F6E563" stroke="#000" stroke-width="8"/><path d="M864.684 81.967c-5.553-51.567-37.949-63.144-54.146-60.83-19.173.66-56.34 14.023-55.546 60.83h109.692Z" fill="#D56DB0" stroke="#000" stroke-width="8"/><path fill="#000" d="M754 82h266v4H754z"/><path d="M1262.66 13.58c-39.54-6.888-58.15 49.392-57.16 68.42h76.5c-3.16-47.241-3.71-65.696-19.34-68.42Z" fill="#E04F3A" stroke="#000" stroke-width="8"/><path d="M1170.75 17.17c-24.8 0-41.06 46.53-40.07 64.711h74.23c-2.38-46.807-23.25-64.711-34.16-64.711Z" fill="#F6E563" stroke="#000" stroke-width="8"/><path d="M1130.68 81.967c-5.55-51.567-37.95-63.144-54.14-60.83-19.17.66-56.34 14.023-55.55 60.83h109.69Z" fill="#D56DB0" stroke="#000" stroke-width="8"/><path fill="#000" d="M1020 82h266v4h-266z"/><path d="M1432.75 17.17c-24.8 0-41.06 46.53-40.07 64.711h74.23c-2.38-46.807-23.25-64.711-34.16-64.711Z" fill="#F6E563" stroke="#000" stroke-width="8"/><path d="M1392.68 81.967c-5.55-51.567-37.95-63.144-54.14-60.83-19.17.66-56.34 14.023-55.55 60.83h109.69Z" fill="#D56DB0" stroke="#000" stroke-width="8"/><path fill="#000" d="M1282 82h266v4h-266z"/></svg>